# xmcd
#
# Track frame offsets:
#	150
#	13776
#	22933
#	34880
#	45406
#	55764
#	68398
#	80382
#	95992
#	107627
#	119507
#	130323
#	141288
#	156320
#	167220
#	180716
#	193096
#	205852
#	217493
#	232423
#	241164
#	255195
#	269508
#	280091
#	304351
#	318882
#
# Disc length: 4458 seconds
#
# Revision: 0
# Processed by: cddbd v1.5.1PL0 Copyright (c) Steve Scherf et al.
# Submitted via: EasyCDDAExtractor 5.0.5.1
#
DISCID=8011681a
DTITLE=The Shadows - Life Story CD1
DYEAR=2004
DGENRE=Instrumental
TTITLE0=Apache
TTITLE1=Man of Mystery
TTITLE2=Shadoogie
TTITLE3=Shindig
TTITLE4=Wonderful Land
TTITLE5=The Rise and Fall of Flingel Bunt
TTITLE6=The Boys
TTITLE7=Theme From 'The Deerhunter'
TTITLE8=The Frightened City
TTITLE9=Theme For Young Lovers
TTITLE10=Dance On
TTITLE11=The Savage
TTITLE12=Albatros
TTITLE13=FBI
TTITLE14=Guitar Tango
TTITLE15=Genie With The Light Brown Lamp
TTITLE16=Atlantis
TTITLE17=Foot Tapper
TTITLE18=Don't Cry For Me Argentina
TTITLE19=Kon-Tiki
TTITLE20=Telstar
TTITLE21=The Third Man
TTITLE22=Geronimo
TTITLE23=Equinoxe V
TTITLE24=The Stranger
TTITLE25=Riders In The Sky
EXTD=
EXTT0=
EXTT1=
EXTT2=
EXTT3=
EXTT4=
EXTT5=
EXTT6=
EXTT7=
EXTT8=
EXTT9=
EXTT10=
EXTT11=
EXTT12=
EXTT13=
EXTT14=
EXTT15=
EXTT16=
EXTT17=
EXTT18=
EXTT19=
EXTT20=
EXTT21=
EXTT22=
EXTT23=
EXTT24=
EXTT25=
PLAYORDER=
